<?xml version="1.0" encoding="UTF-8"?>
<svg id="Layer_2" data-name="Layer 2" xmlns="http://www.w3.org/2000/svg" viewBox="0 0 167.88 187.9">
  <defs>
    <style>
      .cls-1 {
        fill: none;
      }

      .cls-2 {
        fill: #c5d86d;
      }
    </style>
  </defs>
  <path class="cls-2" d="M132.09,19V0h29.48c2.46,0,6.6,5.04,6.3,7.67v110.68c-1.57,37.69-24.2,66.23-63.03,68.87-13.14.89-30.17.91-43.31,0C26.33,184.79,2.17,158.22.46,123.38c-.63-12.76-.6-28.89,0-41.66C2.32,42.07,29.42,18.72,68.5,18.99h63.58ZM132.09,54.21h-66.37c-15.89,1.14-27.89,13.55-29.45,29.24.54,12.62-.85,26.01-.05,38.54,1.11,17.41,13.7,29.07,30.88,30.04,9.82.56,23.18.54,33,0,18.8-1.03,31.39-13.67,32-32.55V54.21Z"/>
  <path class="cls-1" d="M132.09,54.21v65.26c-.59,18.88-13.19,31.52-31.99,32.55-9.82.54-23.18.56-33,0-17.17-.97-29.77-12.63-30.88-30.04-.8-12.53.59-25.92.05-38.54,1.56-15.69,13.56-28.1,29.45-29.23h66.37ZM99.67,136.65l-3.92-25.29.28-.56c14.91-8.65,12.69-31.77-4.53-36.26-21.12-5.51-34.54,20.29-18.51,34.16.64.56,2.64,1.66,2.95,2.08.57.79-.18,5.63-.33,6.97-.74,6.32-1.88,12.6-2.76,18.9h26.83Z"/>
  <path class="cls-2" d="M99.67,136.65h-26.83c.88-6.29,2.02-12.58,2.76-18.9.16-1.34.9-6.18.33-6.97-.3-.42-2.3-1.53-2.95-2.08-16.03-13.87-2.61-39.67,18.51-34.16,17.22,4.49,19.44,27.61,4.53,36.26l-.28.56,3.92,25.29Z"/>
</svg>