<?xml version="1.0" encoding="UTF-8"?>
<svg id="Layer_3" data-name="Layer 3" xmlns="http://www.w3.org/2000/svg" viewBox="0 0 1644.33 252.7">
  <defs>
    <style>
      .cls-1 {
        fill: #fff;
      }

      .cls-2 {
        fill: none;
      }

      .cls-3 {
        fill: #f66;
      }
    </style>
  </defs>
  <path class="cls-1" d="M176.3,27.27V1.91h39.35c3.29,0,8.8,6.73,8.41,10.24v147.73c-2.09,50.31-32.29,88.39-84.12,91.92-17.54,1.19-40.27,1.21-57.8,0C35.14,248.55,2.89,213.08.61,166.59c-.83-17.03-.8-38.56,0-55.6C3.09,58.06,39.26,26.9,91.43,27.26l84.87.02ZM176.3,74.26h-88.58c-21.21,1.52-37.22,18.09-39.3,39.03.73,16.84-1.13,34.72-.06,51.44,1.48,23.24,18.29,38.8,41.21,40.09,13.1.74,30.93.72,44.04,0,25.09-1.38,41.9-18.25,42.71-43.45l-.02-87.11Z"/>
  <path class="cls-1" d="M176.3,74.26l.02,87.11c-.81,25.2-17.62,42.07-42.71,43.45-13.11.72-30.94.74-44.04,0-22.92-1.3-39.73-16.86-41.21-40.09-1.07-16.72.79-34.6.06-51.44,2.08-20.94,18.1-37.5,39.3-39.02h88.58ZM133.03,184.29l-5.23-33.76.38-.75c19.9-11.54,16.94-42.4-6.04-48.4-28.19-7.35-46.1,27.08-24.71,45.6.86.74,3.53,2.22,3.93,2.78.76,1.06-.24,7.51-.45,9.3-.98,8.43-2.51,16.82-3.68,25.22h35.81Z"/>
  <path class="cls-1" d="M133.03,184.29h-35.81c1.17-8.4,2.7-16.79,3.68-25.22.21-1.79,1.21-8.25.45-9.3-.41-.56-3.07-2.04-3.93-2.78-21.39-18.51-3.48-52.95,24.71-45.6,22.98,6,25.94,36.86,6.04,48.4l-.38.75,5.23,33.76Z"/>
  <path class="cls-3" d="M975.14,120.82c9.32-78.3,125.75-96.57,162.7-33.04,3.07,5.28,10.88,23.92,10.88,28.86v123.38l-3.14,3.14h-43.92l-3.14-3.14v-104.56c0-1.22-4.79-14.8-5.88-17.13-12.64-27.18-45.76-26.7-60.74-1.39-1.04,1.76-6.58,15.54-6.58,16.43v106.65l-3.14,3.14h-43.92l-3.14-3.14v-119.2Z"/>
  <path class="cls-2" d="M904.04,130.24h-87.83c10.79-49.56,76.49-48.76,87.83,0Z"/>
  <path class="cls-3" d="M1234.45,54.95h51.23c.69,0,3.17,2.77,5.23,2.09v36.6l-3.14,3.14h-53.33v74.24c0,7.88,4.79,20.99,12.4,25.24,19.42,10.87,26.55-2.43,38.78-1.23,13.27,1.3,14.31,42.05-.98,49.19-17.62,8.22-50.24,5.21-67.04-4.08-12.82-7.09-33.35-33.67-33.35-48.21v-95.15l-18.52-.29c-2.96-1.86-3.67-36.44-1.48-39.57l20.01-1.95c2.17-11.84-5.54-48.06,6.31-53.29,5.54-2.44,43.87-3.06,43.87,4.13v49.14Z"/>
  <path class="cls-3" d="M1441.49,98.87h-32.41c-1.99,0-16.63,4.52-19.24,5.85-10.04,5.11-19.45,22.05-19.45,32.84v102.47l-3.14,3.14h-43.92l-3.14-3.14v-123.38c0-1.59,3.69-13.51,4.64-16.27,13.6-39.4,54.34-51.19,92.7-49.68,3.36.13,20.33,2.29,21.89,3.18,6.94,3.95,4.51,37.01,2.06,44.99Z"/>
  <path class="cls-3" d="M1597.28,243.16c-4.96-1.53-2.76-14.35-3.16-18.82-15.16,16.28-35.18,24.52-57.49,24.67-126.16.84-126.16-213.66,22.75-197.98,37.98,4,84.95,42.38,84.95,82.35v106.65l-3.14,3.14h-43.92ZM1539.32,97.27c-59.9,6.5-58.1,108.63,9.82,104.07,64.42-4.33,52.54-110.83-9.82-104.07Z"/>
  <path class="cls-3" d="M816.21,165.79c6.24,38.24,56.78,44.68,87.19,31.77,18.87-8.01,19.54-20.64,35.79,3.14,11.2,16.38,12.82,20.43-4.35,32.49-25.21,17.72-79.82,18.31-108.09,8.84-85.27-28.56-80.03-166.78,8.21-188.19,43.05-10.45,91.06,7.59,110.64,48.42,5.56,11.58,13.07,41.84,10.66,54.08-.54,2.73-5.88,9.45-7.26,9.45h-132.79ZM904.04,130.24c-11.34-48.76-77.04-49.56-87.83,0h87.83Z"/>
  <path class="cls-3" d="M699.1,243.16c-4.94-4.17-.36-96.63-2.09-111.89-4.17-36.77-44.28-45.59-58.92-12.9-1.76,3.94-5.91,17.86-5.91,21.27v100.38l-3.14,3.14h-43.92l-3.14-3.14v-110.83c0-.79-5.62-12.46-6.64-14.27-15.2-26.82-47.4-19.36-55.18,8.91-.51,1.86-3.01,14.9-3.01,15.81v100.38l-3.14,3.14h-43.92l-3.14-3.14v-119.2c0-1.74,4.25-16.85,5.28-19.81,19.9-57.24,93.08-66.18,133.79-25.3,40.54-40.65,116.32-32.97,136.5,24.67,2.71,7.72,6.74,25.44,6.74,32.99v104.56c0,.37-4.86,5.23-5.23,5.23h-44.96Z"/>
  <path class="cls-3" d="M447.16,150.17c0,55.62-45.09,100.71-100.71,100.71s-100.71-45.09-100.71-100.71,45.09-100.71,100.71-100.71,100.71,45.09,100.71,100.71ZM397.36,149.7c0-28.08-22.76-50.84-50.84-50.84s-50.84,22.76-50.84,50.84,22.76,50.84,50.84,50.84,50.84-22.76,50.84-50.84Z"/>
</svg>